<svg xmlns="http://www.w3.org/2000/svg" viewBox="0 0 302.3 338.4"><defs><style>.a{fill:#030203;}.b{fill:#010102;}.c{fill:#050403;}.d{fill:#040405;}.e{fill:#06060a;}.f{fill:#07070b;}.g{fill:#030204;}.h{fill:#a68143;}.i{fill:#070509;}.j{fill:#e9a878;}.k{fill:#89612b;}.l{fill:#060512;}.m{fill:#c8a27e;}.n{fill:#1c1824;}.o{fill:#a6acdb;}.p{fill:#a7acd9;}.q{fill:#a4aad8;}.r{fill:#aaafdc;}.s{fill:#a4aad7;}.t{fill:#a8aedb;}.u{fill:#a4a8c3;}.v{fill:#f7f7f9;}.w{fill:#554b43;}.x{fill:#1b1b1e;}.y{fill:#2b2b2f;}.z{fill:#4c4c52;}.aa{fill:#c7cbe8;}.ab{fill:#a1a6d4;}.ac{fill:#e8b080;}.ad{fill:#21222c;}.ae{fill:#696d8b;}.af{fill:#3e4152;}.ag{fill:#303240;}.ah{fill:#f0af7e;}.ai{fill:#f5b27f;}.aj{fill:#a68144;}.ak{fill:#89622b;}.al{fill:#f19760;}.am{fill:#c2a05c;}.an{fill:#ee965f;}.ao{fill:#f7ca9d;}.ap{fill:#8b652e;}.aq{fill:#eba978;}.ar{fill:#c09e5a;}.as{fill:#ecbe93;}.at{fill:#865f2a;}.au{fill:#e7915c;}.av{fill:#312214;}.aw{fill:#e7b68b;}.ax{fill:#93713a;}.ay{fill:#291d0d;}.az{fill:#543825;}.ba{fill:#5a3823;}.bb{fill:#2a2016;}.bc{fill:#352115;}.bd{fill:#e6925e;}.be{fill:#e18f5b;}.bf{fill:#241810;}.bg{fill:#c1a05b;}.bh{fill:#c09f5b;}.bi{fill:#9b793f;}.bj{fill:#312212;}.bk{fill:#bf9e5a;}.bl{fill:#8a642e;}.bm{fill:#a58043;}.bn{fill:#b49353;}.bo{fill:#3d331d;}.bp{fill:#edbf93;}.bq{fill:#321e13;}.br{fill:#ce8252;}.bs{fill:#352317;}.bt{fill:#140a07;}.bu{fill:#ec9761;}.bv{fill:#ee9861;}.bw{fill:#f0bc8f;}.bx{fill:#2f1f15;}.by{fill:#1e120b;}.bz{fill:#f8c99d;}.ca{fill:#f8cba0;}.cb{fill:#f8c99c;}.cc{fill:#c87b4e;}.cd{fill:#a16b46;}.ce{fill:#f8c698;}.cf{fill:#8f5b39;}.cg{fill:#f9d7b8;}.ch{fill:#fcf3ec;}.ci{fill:#392c20;}.cj{fill:#8a622b;}.ck{fill:#8b642c;}.cl{fill:#2d2012;}.cm{fill:#967036;}.cn{fill:#3e2719;}.co{fill:#513826;}.cp{fill:#0e0a05;}.cq{fill:#a17d41;}.cr{fill:#2b1d0f;}.cs{fill:#190f09;}.ct{fill:#2c1f0e;}.cu{fill:#ce7c4d;}.cv{fill:#53331f;}.cw{fill:#a1623d;}.cx{fill:#71472d;}.cy{fill:#171009;}.cz{fill:#d78755;}.da{fill:#090706;}.db{fill:#130e0b;}.dc{fill:#f5b17e;}.dd{fill:#c77849;}.de{fill:#22140c;}.df{fill:#574134;}.dg{fill:#31231d;}.dh{fill:#140c08;}.di{fill:#20130b;}.dj{fill:#764e33;}.dk{fill:#462b1a;}.dl{fill:#7c4e31;}.dm{fill:#750505;}.dn{fill:#c5b1b1;}.do{fill:#5a0c0c;}.dp{fill:#f6dac4;}.dq{fill:#f7eade;}.dr{fill:#fcf1e5;}.ds{fill:#432819;}.dt{fill:#e08e5a;}.du{fill:#e8935e;}.dv{fill:#e2915d;}.dw{fill:#21130c;}.dx{fill:#191717;}.dy{fill:#ebcbce;}.dz{fill:#e2ae9f;}.ea{fill:#d2bbb2;}.eb{fill:#e8e4e9;}.ec{fill:#ddcedc;}.ed{fill:#d69b6f;}.ee{fill:#a37755;}.ef{fill:#f0cbc5;}.eg{fill:#e5b2a0;}.eh{fill:#eedbd6;}.ei{fill:#7e5b41;}.ej{fill:#ddd2dc;}.ek{fill:#ddae93;}.el{fill:#e7e4e4;}.em{fill:#f7c091;}.en{fill:#eadaeb;}.eo{fill:#fbf2f0;}.ep{fill:#4b3b37;}.eq{fill:#191513;}.er{fill:#eec9c0;}.es{fill:#8a8580;}.et{fill:#443f42;}.eu{fill:#c6bbb9;}.ev{fill:none;}.ew{fill:#010101;}.ex{fill:#ec955f;}.ey{fill:#9ca2cf;}.ez{fill:#ebbf95;}.fa{fill:#ebab7d;}.fb{fill:#04050e;}.fc{fill:#efc399;}.fd{fill:#f4b27f;}.fe{fill:#fff;}</style></defs><path class="a" d="M302.9,418.7c-37.8-16.6,9.8-31-7.9-52.5-7-18.5-26-27.8-27.2-48.8-.2-5.7-7.7-9.3-4.8-15.3,5.3-10.4-5.9-13.1-1.6-16.8,10.5-6.3,3.1-21.1,12.9-26.8,5.7-5.1,31.5-34.1,17.4-11.9-6.4,9.2-19.3,14.4-19.3,26.7s-9.5,12.1-5.4,17-3.4,13.8,2.1,20c5.2-8.1,9.7-1.7,5.8,1.9-10.3,5.5,2.9,25.9,10.4,30.8,1.4-7-7.7-5.6-7.9-12,.1-8.7,4.2-4.3,6.8.5,5.9-9.7-15-8.4-9.2-17.2,13-6.3,4.1,9,11.5,4,5.4-3.5,2.2,15.4,3,18.3-3.1,20,16.7,30.9,22.5,45.3-2.9,1.7-9.1-7.3-8.6-1.9,1.7,8.8-7.8,11.6-10.4,18.6C287.8,407.3,310.7,415,302.9,418.7Z" transform="translate(-166.8 -223.1)"/><path class="b" d="M448.6,479.4c5-13.5-9.7-24.5-2-25,15.7,18.4,2.2,26.4,11.9,49.4,2.6,8.2,5.1,16.3,8.3,24.3,1,2.5,2.4,5.7-2.3,6.2-2.4-1-2.3-3.5-2.9-5.3-4.1-12.6-8.1-25.1-12.1-37.7C446.3,487.6,446.6,483.6,448.6,479.4Z" transform="translate(-166.8 -223.1)"/><path class="c" d="M371.8,414.5c-10.5,19.9-45.6,16.5-62.7,7,1-4.7,7.4-.1,10.6-.7-1.6-3.3-6.1-4.5-6-8.7,4.2-3.8,9.4,4.4,12.6,6.7,10.8,10.5,50.7,2.4,39-17.7-5.1-10.3,8.6,1,11.5,2.5C374.2,406.8,373.3,410.8,371.8,414.5Z" transform="translate(-166.8 -223.1)"/><path class="d" d="M314.1,227c-4.3-10.6,13.6,4.2,19.4,1,24.2,4.7,55.4,9.2,58.2,39.1-6.3-.3-6.4-16.3-11.5-18.5-12.1-2.4-17.9-15.7-28.1-12.6-7.4,3.1-12.3-5.4-19.9-3.9-11.5-5.9-19,5-30,4C302.9,231.1,314.1,232.1,314.1,227Z" transform="translate(-166.8 -223.1)"/><path class="e" d="M371.8,414.5c.8-4,1.3-8.2,5-10.9,15.8,9.5,32.1,17.7,50.3,20.8,4.1,1,7,2.7,8.6,7,2.9,8,6.1,15.9,10.9,23-5,2.7,4,9.6,2.9,14.1-10.1-12.4-10.9-41.1-28.1-42.8-15.2-2.1-28.5-9.2-41.1-17.6C373.3,403,375.4,411.2,371.8,414.5Z" transform="translate(-166.8 -223.1)"/><path class="f" d="M286.2,394.6c2.3,2.4,2.1,5.3,1.8,8.3-2.4-6-2.5-6.2-8.9-3.1-19.6,9.3-40.2,15.9-60.5,23.5a6.4,6.4,0,0,0-4.1,4.5c-2.4,8.3-7.3,15.8-8,24.7-.1.8-1.3,1.5-1.9,2.2-.8-1.3,2.4-3.6-1.1-4.2,5.1-9.6,5.1-27.1,16.6-30.7C242.7,413.1,264,402.7,286.2,394.6Z" transform="translate(-166.8 -223.1)"/><path class="g" d="M391.8,267.8c1.7.1,2.3,1.4,2.6,2.7,2.4,9.8,2.7,8.8,14.6,10.7-.5,3-4.3,2.7-5.9,5.5h11.5c1.1,2.8-2,4-3.1,5.3,3,5.5-2.8,5.3-4.9,7.4s-2.9,2.4-3.2,4.7c-.5,4-3.3,6.7-5.6,9.7.7,1,.5,1.8-.7,2.3s-2.9-2.6-3.1-4.4.9-2.6,1.5-3.8c1.5-3.3,1.8-7.3,5.3-9.4s2.4-2.3,1.2-4.5,1.1-3.7,3.5-3.9c-4.9,0-5.2-.2-6.6-4.3.5-1.6.6-2.9-1.6-2.9C392.6,281.7,388.6,271.9,391.8,267.8Z" transform="translate(-166.8 -223.1)"/><path class="h" d="M317.1,230c2.8-3.9,14.1,1.5,18.5,2.2,12.4,12.3-12.3,17-20.1,7.4-3.9-8.1-19.7,8.2-19.3-1.6C306,230.8,338.4,237.6,317.1,230Z" transform="translate(-166.8 -223.1)"/><path class="i" d="M365.9,396.6a2.4,2.4,0,0,0-1.1,2.1c-7.3-3.2-2.5-12.1-4.4-17.9-3.7-5.2,6.5-9.5,8.5-13.8,5.6-7.3,8.6-16,12.3-24.3a58.5,58.5,0,0,0,11.2-14.1c1-1.5,1.5-3.9,4.2-3-1.3,12.2-14.1,18-16.5,29.6C374.2,372.8,359.9,374.4,365.9,396.6Z" transform="translate(-166.8 -223.1)"/><path class="j" d="M396.6,325.6c-5.4,3.5-5.5,11.6-11.8,14.4-8.9-6.5,12.7-13.2,4.4-18.8-3.4-1.8.4-3.1.3-4.6-4.5-6.1,5.9-9.8,6.3-2C397.3,318.2,395.3,322.1,396.6,325.6Z" transform="translate(-166.8 -223.1)"/><path class="k" d="M391.8,267.8c-.9,2.9.6,5.4.9,8.1-4.2.9-8.1-.8-10.6-5s-5.1-6.9-2-9.7,8.2,4.4,11.6,5.9A1.7,1.7,0,0,0,391.8,267.8Z" transform="translate(-166.8 -223.1)"/><path class="l" d="M396.9,315.8l.9-2c1.9,2.5.6,5.2.4,8-.4-1.3-.7-2.6-1.1-3.9S396.2,316.5,396.9,315.8Z" transform="translate(-166.8 -223.1)"/><path class="m" d="M396.9,315.8c0,2.9.6,6-.6,8.8-1-3.3-.3-6.6-.5-10Z" transform="translate(-166.8 -223.1)"/><path class="n" d="M314.1,227c1.4,2.4-.3,2.7-2,3C312.7,229,313.4,228,314.1,227Z" transform="translate(-166.8 -223.1)"/><path class="o" d="M226.5,447.4c-11.4-8.1-1,51.7-1,57.8,6,7.1,1.3,14.9,1.6,22.4.3,5.4,8.8,19.3-2.1,18.7a96.9,96.9,0,0,1-27.5-6.1c5.7-3.9,18.4-5.6,20.8-12,3.2-13.3,8.3-30-10.4-32.9-7.4-2.2-11.2-9-9.2-16.5s10.7,2.7,14.6,5.6c.9-16-.5-31.4,6.6-45.7,3.3-4.3-3.6-7.9.4-8,11.4,8,13.6,19.9,14,32.7-1.8.3-1.8-1.2-1.8-2.2a8.1,8.1,0,0,0-2.5-5.7C228.6,452.8,228.7,449.7,226.5,447.4Z" transform="translate(-166.8 -223.1)"/><path class="p" d="M423.6,506.1l5.1-34.6c1.1-2.2.1-4.6.2-6.9s.9-7.8,2.8-11.3a25.4,25.4,0,0,1,1.7,24.7c-4.4,10.2-7.2,20.8-9.6,31.6C422.8,508.5,423.1,507.3,423.6,506.1Z" transform="translate(-166.8 -223.1)"/><path class="q" d="M427.6,553.3c-1.4,1.6-3.5,1.6-5.3,2.5s-5.9,4.4-7.1-3c-1.2-3.6,2.9-28.1,5.5-27.5C421,532.1,419.7,550.9,427.6,553.3Z" transform="translate(-166.8 -223.1)"/><path class="r" d="M356.7,439c8.1-6.2,17.6-10.5,23.9-19.2C387,432.9,366,438,356.7,439Z" transform="translate(-166.8 -223.1)"/><path class="s" d="M234.5,468.2c.2,26.2-.7,52.3.8,78.4-6.5-29.1,2.2-59-3.9-88.2-1.2-.8-2.3-1.6-.6-3s1.1,1.8,1.8,2.6.1,3.9,1.7,5.4C234.3,465,234.4,466.6,234.5,468.2Z" transform="translate(-166.8 -223.1)"/><path class="t" d="M448.6,479.4c.4,4-.1,8,.9,11.9-6.2,4-9.5-.5-5.2-6C445.7,483.3,446.2,480.6,448.6,479.4Z" transform="translate(-166.8 -223.1)"/><path class="u" d="M420.7,525.3h-1a125.7,125.7,0,0,1,3.9-19.2C424.2,512.6,421.6,518.9,420.7,525.3Z" transform="translate(-166.8 -223.1)"/><path class="v" d="M411.9,537.3c-1.4,2.6-4.2,21.4-6.3,19.8C407.4,550.4,408.3,543.4,411.9,537.3Z" transform="translate(-166.8 -223.1)"/><path class="w" d="M312.1,420.5c-1,.3-2.3-.2-3,1a13.4,13.4,0,0,1-6.2-2.8C305.9,417.1,310.3,416.8,312.1,420.5Z" transform="translate(-166.8 -223.1)"/><path class="x" d="M429.8,464.9c-.1,2.2.1,4.5-1.1,6.6-.5-1.6.6-3.6-1-5.1s.6-3.3,1-5C431.1,461.9,429.8,463.6,429.8,464.9Z" transform="translate(-166.8 -223.1)"/><path class="x" d="M426.6,472.3a19,19,0,0,1-2.1,11A34.6,34.6,0,0,1,426.6,472.3Z" transform="translate(-166.8 -223.1)"/><path class="y" d="M429.8,464.9c-.3-1.2.1-2.6-1.1-3.5.4-1.6.7-3.3,1.1-4.9,2.3.4,1,2,1,3.1S430.8,463.2,429.8,464.9Z" transform="translate(-166.8 -223.1)"/><path class="v" d="M398.4,553.1c1-3.1,2.1-6.1,3.2-9.2C401.7,547.4,401.5,550.7,398.4,553.1Z" transform="translate(-166.8 -223.1)"/><path class="z" d="M430.8,459.6c-.3-1,.1-2.3-1-3.1s.2-2.8,1.9-3.2C431.6,455.4,432,457.6,430.8,459.6Z" transform="translate(-166.8 -223.1)"/><path class="aa" d="M220.3,430.7c-.8.3-.8,1.1-.9,1.8C216.4,430.7,218.3,427,220.3,430.7Z" transform="translate(-166.8 -223.1)"/><path class="ab" d="M228.5,494.3c-1.2-12.5-7-34.9-2.2-46,5.2,2.4,2.5,11.8,4,16.2h0c1.3,7.7.2,15.4.6,23C229.5,489.5,232.1,493,228.5,494.3Z" transform="translate(-166.8 -223.1)"/><path class="ac" d="M190.5,549.2c-3.3.7-1.8,4.5-4,6,1.1-3.2-.7-14.9,5.1-11.1C191.3,545.8,192.2,547.8,190.5,549.2Z" transform="translate(-166.8 -223.1)"/><path class="ad" d="M230.3,488.3V464.4c1.7,1.5,1.1,3.4,1.1,5.1-.4,8.6,1,17.3-.9,25.9C229.3,493.1,229.9,490.7,230.3,488.3Z" transform="translate(-166.8 -223.1)"/><path class="ae" d="M230.3,488.3c.1,3.8.5,6.9-.2,10.7-2-1.4-1.8-3.1-1.6-4.7C230.4,492.7,228.7,490,230.3,488.3Z" transform="translate(-166.8 -223.1)"/><path class="af" d="M229.2,456.7c-1.4-2.6-.7-6-2.9-8.4a2.9,2.9,0,0,1,.2-.9c3.5.6,3.2,3.6,3.9,6C229.3,454.3,230.5,455.9,229.2,456.7Z" transform="translate(-166.8 -223.1)"/><path class="ag" d="M230.3,464.5c-1-1.9-.9-4-.8-6.1.3-.4.7-.3,1,0C230.4,460.5,230.4,462.5,230.3,464.5Z" transform="translate(-166.8 -223.1)"/><path class="ad" d="M230.5,458.4h-1c-.2-1.6-.7-3.8.9-5a11.8,11.8,0,0,0,.4,2c-.8,1.2.7,2,.6,3Z" transform="translate(-166.8 -223.1)"/><path class="ah" d="M460.3,554.2a2.3,2.3,0,0,0-2.8,0,26,26,0,0,0-2.1-8.3C459.6,542.7,459,551.8,460.3,554.2Z" transform="translate(-166.8 -223.1)"/><path class="ai" d="M375.8,357.7c-11.7,27.4-49.2,26.1-71.7,13.9-.8-3.6-3.5-6-5.9-8.4-11.9-12.3-7.6-29.5-10-44.6-6.4-9.9,8.1-24.3,14-10.7,3.6,10.3,18.2,5.2,26.6,6.4,5-.2,6.5-5.6,9.8-8.4s8.5,1.4,5.8,5.5c-.5.1-.9,1.2-1.4.1-1.1,3.6-1.5,7.5-3.4,10.9-.7,1.3,1.2,2.2,1.6,3.4-1.2,3.8-4.8,4.4-7.8,5.8s-7.5-1.4-6.5,1.4c4,1.5,7.7,3.5,11.9,4.4,1.8.4,3.9.6,3.7,3.1s-1.2,4.5-3.9,5.1-3.3-.2-4.5,1.4a3.5,3.5,0,0,1-1.3.8c-5,1.1-15.6,3.8-18.1-2.3-1.1,2.9.4,3.7,1.6,4.7,11.2,9.2,28.6,12.1,43.1,1.1,5.9-2.9-5.7-13.8-5.4-22.7-.3-4.4-8.4-12.4.2-13s16.8,4.1,22-3.2c9.3-12.1,11.8,9.9,6.6,10.5-.9-1.9-.3-3.9-.4-5.8s-.9.1-.3-.1C383.8,330.7,379.6,344.6,375.8,357.7Z" transform="translate(-166.8 -223.1)"/><path class="aj" d="M389.9,265.7c-21.3-9.1-1,8.7,5.1,15-1.4,3-8.6,5.6-3,8.2-12.3,16.9-5.5-10.8-16.3-15.6-3.3-6-11-16.3-16.9-8.8-5.4-3.5-12-10.6-8.3-18.3-3.5,11.7-33.1,40.3-15.9,11.1,0,7.3-26.5,21.9-18.1,10.1-13.3,5.2-28.3,13.6-42.1,16.8-1.8-2.7,6.4-6,8.2-8.5-16.4,7.2-13.5-13.6-.5-19.9,31.8-4.1,54.8-8.6,63.8-19.9,5.3-3,24.2-1.8,16.7,5.4C350.1,247.9,391,257.9,389.9,265.7Z" transform="translate(-166.8 -223.1)"/><path class="ai" d="M312.1,420.5c-7-2.1-24.2-13.7-20.1-22.2,15.3.3,9.3-4.7,12.8-15.5,2.4-.9,2.7,1.2,3.5,2.5,5.8,12.3,17,19.8,30.7,18.4,7.7.7,20.9-6.2,26.7-3.1,4.1,3.1,4.5,12.9-.6,16.1-3.2.5-2.1-3.3-4.1-4-10.1,13.5-12.8,12.5-29.2,11.5-6.2-2.4-10.5-8.7-16.1-12.6-2.2-1-4.4-2-5.9-4-.9-.3.1.2-.1.3C310.2,410.9,319.7,422.2,312.1,420.5Z" transform="translate(-166.8 -223.1)"/><path class="ak" d="M332,263.9c-7.7,16.4,15.7-12.8,19.3-19.6-6.8,12,13.3,18.1,6.5,24-5.3,1.2-6.9-12.7-11.5-3-10,20.8-35,8.9-51.9,17.2,14.4-2.6-7.5,14.2-11.1,17.2-6.8,2.5-5.6,13.8-8.1,5,.2.3-.1,1.2-1.2,1.9-12.8,14.6-4.5-10.4-8.2-16.3-2.9-3.3-1.3-4.7,1.5-6.2,14.5.3,34.9-13.3,51-19C306.2,283.4,332.4,256.9,332,263.9Z" transform="translate(-166.8 -223.1)"/><path class="al" d="M365.7,400.6c-21.8,3.6-45.8,12.1-57.8-13.4-1.2-3.1-5.9-6.3-2.8-9.6,2.7.8,4.1,3.8,7,4.2s2.9,1.5,4.6,1.9c6.9-2.1,12.8,2.2,14.9,8.8.2-9.6,12.4-7.5,19-7.8,4.3,0,6.6-4.3,10.5-4.9S356.8,389.5,365.7,400.6Z" transform="translate(-166.8 -223.1)"/><path class="am" d="M336,242.9c29.2-2.5-39.9,16.2-53.9,12.9,7-10.8,21.2-14.3,33-16.8C323.4,237.9,322,248.4,336,242.9Z" transform="translate(-166.8 -223.1)"/><path class="an" d="M305.2,372.6a15.1,15.1,0,0,1,7.3,1.3c19.2,8.2,40.4,6,57.1-6.3-2.1,4.7-6.8,7-9.9,10.7-6.8,8.6-20.3-.3-29.4,3.5-4.7,2.4-9.7.6-14.5,1-3.3-.6-4.8-4-7-6.1S305.2,374.6,305.2,372.6Z" transform="translate(-166.8 -223.1)"/><path class="ao" d="M305.1,377.6c-1.4,20.5,5.6,20.1-11.1,22.2-1.4.3-1.7-.4-2-1.5-.3-3,2.1-4.5,4-5.9,4.7-3.7,6.8-8.1,5.8-14.1C300.8,375,304,374.2,305.1,377.6Z" transform="translate(-166.8 -223.1)"/><path class="ap" d="M315.1,239c-6.8,2.5-32.7,16-19.1.8C297.1,241.8,320.5,230.4,315.1,239Z" transform="translate(-166.8 -223.1)"/><path class="aq" d="M278,330.9c1.7,5.6,12.7,6.4,8.2,13.3-4,2.1-14-14.5-14.9-18.4s-1.6-8.1,1.3-10.3c1.2,0,1.5,1.2,1.7,2.2a6.2,6.2,0,0,1,1.7,4.5C275.4,325.3,277.6,327.9,278,330.9Z" transform="translate(-166.8 -223.1)"/><path class="ar" d="M274.2,283.8a42.3,42.3,0,0,1-5.8,2.5c-3.3.8-.5-1.6-1.1-2.2,2.7-3.3,2.7-7.5,4-11.2,1-.3,2.6-1.5,2.7.3.5,8,7-1,11.7,1C282.7,278.7,277.8,280.5,274.2,283.8Z" transform="translate(-166.8 -223.1)"/><path class="as" d="M289.2,324.7c2.1,3.6.7,7.5.9,11.2.5,9.3,1.6,18.4,8.4,25.7.9,1.6,9.5,9.9,5.6,10C290.1,359.9,286.1,342.2,289.2,324.7Z" transform="translate(-166.8 -223.1)"/><path class="at" d="M283.2,298.8v-1c2-.1,4.5-3.6,5.9.7a6.4,6.4,0,0,1-.1,2.4c-1.5,4.7-3.2,9.4-2,14.5a8.2,8.2,0,0,1-.7,4.3c-3.1.5-2.2-3-3.9-3.9-.3-2.9-2.3-2-4-1.8l-.4-.6C282.7,307.5,276.4,307.8,283.2,298.8Z" transform="translate(-166.8 -223.1)"/><path class="au" d="M275.2,322.6l-.9-4.9c.8,0,2.3-.1,2.3.1.8,4.2,4.2,4.6,7.4,4.9s1.4,8,2.2,11.4c-7.5-.5-2.8-9-7.9-7.2C276,327.3,276.1,324,275.2,322.6Z" transform="translate(-166.8 -223.1)"/><path class="av" d="M285.2,319.7c2.9-2.8-2.9-9.7,2.9-19,3.4,1.9,1.2,5.6.1,8.1,0,4.1,1.3,15.2-6.1,11.1A2.2,2.2,0,0,1,285.2,319.7Z" transform="translate(-166.8 -223.1)"/><path class="aw" d="M272.3,315.7c-.5,3.3.9,6.9-1,10.1a17.1,17.1,0,0,1-.1-12.2C272.7,313.7,272.9,314.5,272.3,315.7Z" transform="translate(-166.8 -223.1)"/><path class="av" d="M289.2,324.7c-1,4.3.8,8.8-1,13V318.6C289.9,320.5,289.1,322.7,289.2,324.7Z" transform="translate(-166.8 -223.1)"/><path class="ax" d="M285.2,319.7l-3.1.2c-2-1.5-.2-2.8.3-4.1C285.6,315.4,284.9,317.9,285.2,319.7Z" transform="translate(-166.8 -223.1)"/><path class="ay" d="M274,306.6l.5-4.4c2.4,1.7,1.2,3.9,1.8,5.6s.4,2.6-1,2.2S275.3,307.4,274,306.6Z" transform="translate(-166.8 -223.1)"/><path class="az" d="M277.1,324.8c1.2,2,2.7,4.1.9,6.1C276.6,330.2,274.2,325,277.1,324.8Z" transform="translate(-166.8 -223.1)"/><path class="ba" d="M312.2,380.5l2.9,1.1c.6.9,3.5,1.1,1,3-1.4-.9-3.2-1.1-4-2.8Z" transform="translate(-166.8 -223.1)"/><path class="ay" d="M274.1,317l-1-.9c-.6-1.8-1.2-4.5,2.1-4.3C276.6,313.5,274.8,315.4,274.1,317Z" transform="translate(-166.8 -223.1)"/><path class="bb" d="M274.2,311.8c-1.5,1.2-.8,2.9-1.1,4.3a2.7,2.7,0,0,1-1.9-2.5C271.7,312.1,271.6,309.8,274.2,311.8Z" transform="translate(-166.8 -223.1)"/><path class="ak" d="M275.3,314.9c-1.3-1,.5-2.1-.1-3.1s.1-1.2.1-1.8l.8-.3c1.7,1,1.1,3.1,2.3,4.3Z" transform="translate(-166.8 -223.1)"/><path class="bc" d="M305.3,373.3c1.5.8,2.9,1.7,3.5,3.4A4.1,4.1,0,0,1,305.3,373.3Z" transform="translate(-166.8 -223.1)"/><path class="bd" d="M360.9,411.4c2.6-4.2,1.5,4.6,4.2,5.3-3.7,4.4-9.4,4.7-14.2,6.8l8-10C361.1,414.3,359.9,411.7,360.9,411.4Z" transform="translate(-166.8 -223.1)"/><path class="be" d="M313.9,420.7c-.2-4.6-4.1-7.7-4.9-12,3.1-.4,4.2,1.7,4.9,4.1l9.1,9.7A16.4,16.4,0,0,1,313.9,420.7Z" transform="translate(-166.8 -223.1)"/><path class="bf" d="M313.9,412.8l-4.9-4.1c-.2-1-.6-2.4.9-2.1s4.5,2.7,5.8,5A2,2,0,0,0,313.9,412.8Z" transform="translate(-166.8 -223.1)"/><path class="bg" d="M386.9,259.8c-5.8,3.5-20.1-8.8-26-12.8C370.8,244.7,384.9,247.9,386.9,259.8Z" transform="translate(-166.8 -223.1)"/><path class="ak" d="M362.9,247c-9.5-.9-4.2-6.7,2-8.1C380.6,249.5,382.7,248.3,362.9,247Z" transform="translate(-166.8 -223.1)"/><path class="ak" d="M336,242.9c-7.8-.4,10.8-4.4-3-11C338.5,226.7,353.5,239.2,336,242.9Z" transform="translate(-166.8 -223.1)"/><path class="bh" d="M317.1,230c3.1-.2,13.3,2.6,12.2,6.4C325.2,236.3,307.3,234.8,317.1,230Z" transform="translate(-166.8 -223.1)"/><path class="bi" d="M371.8,247c5.3.2,13.2.1,13,6.9C381.5,250.6,373.8,249.4,371.8,247Z" transform="translate(-166.8 -223.1)"/><path class="k" d="M359.8,263c1.8-.9.4-3.1,2-4.7,5.6,3.8,11.9,6.9,14.7,13.9.7,1.7,1.4,3.5,4,3.9,4.4.8,4.6,13.9,4,18.3,9.3-8.8,3.5.9,17.5,4.6-3.7,2.2-4.3,6.1-5.3,9.7-3.1,2.3-7.2-2.7-8.3,3.1-.3.9-1,2-2.1,1.9-3.7-1.9-2-7.8-3.5-11.2-1.3-5.5-5.7-18.8-11.2-20.3C366.8,276.3,362.5,270.2,359.8,263Z" transform="translate(-166.8 -223.1)"/><path class="bj" d="M383.8,302.8c2.7,2.9-.5,7.2,2.4,10.2,2-1.7,1.7-4.5,3.2-6.8,2.3,1.1,4.5,2.9,7.3,2.5-.4,1.2-2.1,1.5-1.9,3-2.2-1.8-3.8-.7-5.2,1.1s1,2.8,1.9,4.1c-1.6,2.6-4.1.2-4.5,2.9s2,0,2.8.8c4.6,2-2.7,3.5-3,6-.1.6-.4,1.4.8.9s4.1-1.8,3.3.6-5.7,3.6-6.5,7.5c-.3,1.6-1.1,3,.4,4.4-.1,2.1-1.6,2.6-3.3,2.8s1-18.5,2.1-20.5V310.9C382.7,308.2,381.5,305.4,383.8,302.8Z" transform="translate(-166.8 -223.1)"/><path class="bk" d="M391.8,288.9c-1.5-.4-3.7.9-4.4-.9s1.5-2.6,2.6-3.8,4.6-4.6,7.7-2.3c.7.8,3,.2,2,2.4C398.5,289.5,397.1,290.3,391.8,288.9Z" transform="translate(-166.8 -223.1)"/><path class="bl" d="M391.8,288.9c3.5-.3,6.8-.9,7.9-5.1.5.2.5,1,.1,1.1-.6,4.8,3.8,3.9,6.3,5.3-1.8,1.1-4.1,1.7-3.2,4.5-1.1.7-1.7-.2-2.4-.7-3.8-1.8-8.2-.4-11.8-3.2Z" transform="translate(-166.8 -223.1)"/><path class="bm" d="M390.7,291.8c3.7-.1,7.4-.6,10.9,1.1-3.3,2.9,1.5,3.3,1.5,5.1l-1.1,1C396.5,299.3,392.2,297.8,390.7,291.8Z" transform="translate(-166.8 -223.1)"/><path class="bn" d="M403.1,298c-3.4-.7-8.3-5.9-1.5-5.1C401.7,295.7,408.9,295.5,403.1,298Z" transform="translate(-166.8 -223.1)"/><path class="bo" d="M399.8,284.9c0-.4-.1-.7-.1-1.1a18,18,0,0,1-2-1.9C400.3,281.1,403.4,283,399.8,284.9Z" transform="translate(-166.8 -223.1)"/><path class="bp" d="M383,328.7c-2.7,9.8-.6,20.4-7.2,29-2.1-2.8.3-5,1-7.3,3.5-11.3,4-22.9,6.1-34.5C382.6,320.2,383.4,324.5,383,328.7Z" transform="translate(-166.8 -223.1)"/><path class="bq" d="M357.1,379.7l2.6-1.4,1.4,1.5c-2.9,2.8-5.5,6-10.1,5.7C349.3,381.7,355,381.4,357.1,379.7Z" transform="translate(-166.8 -223.1)"/><path class="br" d="M389.8,320.6c-1.2-.4-3.3,1.5-3.7-.9s4-.6,5.4-2.8c1.8,2.5-.6,1.7-1.6,1.9C387.1,319.3,389.9,320,389.8,320.6Z" transform="translate(-166.8 -223.1)"/><path class="bs" d="M390.8,322.6v-1.7c4.1-.7,1.3,5.5.1,7.2C388.9,326.6,389.1,324.2,390.8,322.6Z" transform="translate(-166.8 -223.1)"/><path class="an" d="M343,311.8a4,4,0,0,0,.3-5.3c-1.6-2.4-4.1,1.5-5.6.1-.8-2.9,1-4.3,3.2-5.5,5.3-1.5,5.1,3.6,7.2,5.9.3,2.5,1.2,4.6,4,5.3,9.2,2,18,2.7,25.1-5.3,2.1-2.4,7.8-1.2,5.6,2.8-3-.3-4.5,1.7-5.8,3.8s-5.5,4.9-9.3,3.9c-2.3-.4-19.8-2.7-16.2,2.1s3.3,13,6.7,18.8c1.7,4.7,8.6,10.9,1.6,14.2-1.7-2.3,1.1-6.3-2.9-7.7-3.9-4.3-11.9-10.4-11.3.1.2,3.2,9.5.2,11.5,4.4a3.1,3.1,0,0,1-2,1.4c-9.8.6-19.6.2-29.3.2-2.5-.6-5.6,0-6.9-3.2,6.7.3,13.3-1.4,19.9-.5-1.6-.6-3.2-.2-4.8-.6-1-2.3-.2-3.1,2.2-2.4,4,2.3,7.8-5.4,3-5.6s-9.4-3.4-14.2-5c3.1-2.6,6.9-.7,10.2.1,5.6,1.4,11-.3,16.4-1.4,2.2-2.9.3-6.4-.6-9.4,4,6.7-4.1,11.2-7.5,4.3-1.1-2.1,0-4.9-2-6.8a3.2,3.2,0,0,1-.1-2.7C342.6,316,341.2,313.3,343,311.8Z" transform="translate(-166.8 -223.1)"/><path class="bt" d="M357.7,344.7c3.2,1.6,3.4,2.2,2.1,7.9-14.8,9.9-28.2,9.5-43.8-1.2-5.4-3.7-5.4-3.9-.1-8.4.5,2-.7,5.1,3,4.8l6.1,2c.8.5,1.7.9,1,2.1s-1.9.6-1.6,1.3c7.4,3.6,17,4.7,24.9.7-6.8-3.1-14.7,1.6-21.4-2.2-.3-3.5,23.3-.3,28-2l1.1-.9A14.1,14.1,0,0,1,357.7,344.7Z" transform="translate(-166.8 -223.1)"/><path class="bu" d="M337.6,306.7H339c-3.5,7.1-8.8,10.2-16.8,9.1-6.4-1.7-17.5,2.3-20.6-5.2-.7-9.2-9.2-8.8-13.4-1.9.3-2,.7-3.9,1.1-5.8l.5-.7c16.1-4.9,9.7,7.4,21.7,8.8a57.8,57.8,0,0,0,16.1.5C331.8,311.1,333.8,307.2,337.6,306.7Z" transform="translate(-166.8 -223.1)"/><path class="bv" d="M349,361.7c9.2,3.9-12.4,14.7-19.9,4.8,5-2.3,11.1,2.3,16.2-1.9C346.3,363.3,347.3,361.9,349,361.7Z" transform="translate(-166.8 -223.1)"/><path class="bw" d="M347,363.7a2.8,2.8,0,0,0-.1.9c-5.5,2.7-10.9,2.4-15.9-1.9.3-.9,2.5-.1,2-2h15c-.1,2.9-4,1.7-5.3,1.9C343.2,362.7,346.3,362.4,347,363.7Z" transform="translate(-166.8 -223.1)"/><path class="bx" d="M334,364.6c4.3,1.4,8.6-.4,12.9,0-4.7,5.2-10.3,3.1-15.7,1.9-.7-2,1.4-.9,1.8-1.7Z" transform="translate(-166.8 -223.1)"/><path class="by" d="M331.5,333.9l-6.5-.2c-1.7-3.1-.5-4.4,2.6-3.5s7.5-.5,7.6,3.3C334.1,334.7,332.8,334.1,331.5,333.9Z" transform="translate(-166.8 -223.1)"/><path class="bz" d="M343,311.8v1c-1.2,1.5.1,3.5-1,5a29.5,29.5,0,0,1,.2,4.2c-1,1.2.5,2.5-.1,3.8s-5-1.2-3.9-3.1S341.6,307.6,343,311.8Z" transform="translate(-166.8 -223.1)"/><path class="ca" d="M298.2,320.9c3.6-3.8,7.2,2.8,2.4,4.1C297.2,329.1,293.8,322.7,298.2,320.9Z" transform="translate(-166.8 -223.1)"/><path class="cb" d="M376.8,322.4c.4,4.2-5.4,4.1-4.9.2S376.5,318.6,376.8,322.4Z" transform="translate(-166.8 -223.1)"/><path class="cc" d="M341,325.8h.8c2.8,2.8-1.7,5.3-3.4,6.8s-4,0-5.6-1.6C335.7,329.4,338.6,328,341,325.8Z" transform="translate(-166.8 -223.1)"/><path class="cd" d="M382.8,309.8c.5-2.5-1.2-2.9-3.1-3.1-.1-1.4,1.9-1.7,1.6-3.2s1.8-1.7,2.5-.6h0c-.1,2.7-.2,5.4-.2,8.1Z" transform="translate(-166.8 -223.1)"/><path class="ce" d="M327.6,326.9c0,1.7-3.4,2.6-3.1.4S327.5,325.1,327.6,326.9Z" transform="translate(-166.8 -223.1)"/><path class="cf" d="M333,364.8l-1.8,1.7h-2.1l-2.8-1.7Z" transform="translate(-166.8 -223.1)"/><path class="cg" d="M333,360.7c2.4,2.4-.4,2-2,2C328,361,331.1,360.6,333,360.7Z" transform="translate(-166.8 -223.1)"/><path class="ch" d="M347,363.7l-1-.2c-.6-.7-2.6.2-2-1.8,1.4-.2,2.9.2,4-1l1,1Z" transform="translate(-166.8 -223.1)"/><path class="ci" d="M383,328.7a8,8,0,0,1-.1-5.9l.7-.5C383.6,324.4,384.5,326.7,383,328.7Z" transform="translate(-166.8 -223.1)"/><path class="cj" d="M301.2,259c-3.4,2.5-24.1,19.2-25.9,12.1-3.3-12.2,11.6-9.5,18.8-11.1C296.3,259.3,298.8,259.3,301.2,259Z" transform="translate(-166.8 -223.1)"/><path class="ck" d="M294,269.6c7.1-8.7,17.6-10.6,27.3-14A65.9,65.9,0,0,1,294,269.6Z" transform="translate(-166.8 -223.1)"/><path class="cl" d="M359.8,263l12.1,18.8a2.1,2.1,0,0,1-1.3,2.3c-6-4.4-7-12.5-12.6-17.2.2-1,.5-2,.8-3Z" transform="translate(-166.8 -223.1)"/><path class="cm" d="M332,263.9c-1.8-3.7,1.7-5.7,4-10.4C335.3,258.2,334.3,261.3,332,263.9Z" transform="translate(-166.8 -223.1)"/><path class="cn" d="M360.9,411.4c.6,2.1-.5,3.5-1.7,5.1-1.5-1.1.2-2.1-.3-3S359.6,411.4,360.9,411.4Z" transform="translate(-166.8 -223.1)"/><path class="co" d="M309.9,406.6l-1,1.2-3.8-2.8C308.1,404.4,309.1,405.3,309.9,406.6Z" transform="translate(-166.8 -223.1)"/><path class="cp" d="M288.4,298.8c-1.1-3.6-3.7.2-5.2-1,2.6-3.2,18.5-12,14.1-15.8-1,.4-2.1.7-2.1-1,9.9-5.1,21.8-3,32.5-4.1,9.4.5,14.5-8.1,19.2-14.9.8-1.3,1.7-4.4,4.1-1.2-2.1,8.2-9.2,15-16.6,19.3-17.8,4.5-27.3-4.9-39.9,13.8-3.8,3.6,4.4,1.8,2.2,5.5C293.8,300.5,291,300.8,288.4,298.8Z" transform="translate(-166.8 -223.1)"/><path class="cq" d="M278.1,313.7c-3.1-.3-1.6-4-1.8-5.9,1-4,1.2-8.6,6.9-9,.9,2.2-1.1,3.5-1.7,5.3C278,309.3,286.6,310.6,278.1,313.7Z" transform="translate(-166.8 -223.1)"/><path class="cr" d="M349.7,262.1l1.3-1.3c3.1,1.5,2.7,6.4,6.8,6.9,1.3,2.1-.1,2.8-1.6,3.5C351.7,269.9,350.6,266,349.7,262.1Z" transform="translate(-166.8 -223.1)"/><path class="cs" d="M355.7,271.2c1.1-1.5,2.3-2.1,2.3-4.3h1c1.4,4.8.7,6.4-3,6.6A2,2,0,0,1,355.7,271.2Z" transform="translate(-166.8 -223.1)"/><path class="ct" d="M295.2,281l2.1,1c-1.5,1.2-3.1,2.2-5.6,1.6C292.4,281.8,293.9,281.5,295.2,281Z" transform="translate(-166.8 -223.1)"/><path class="cu" d="M357.1,379.7c-1.5,2.5-5.3,2.6-6.1,5.8-5.8,2-18.3-2.4-18,7,0,.8,1.6,3.8-1.8,2.8-.4-2.9,1-6.5-3.3-7.7s-6.1-4.7-10.3-2.1c-.2.1-1-.6-1.5-.9,1-1.4-1-1.9-1-3,5.1-.2,10.3.7,15.3-1h12c1.5,0,3.1,1.1,4.5-.1A34.7,34.7,0,0,0,357.1,379.7Z" transform="translate(-166.8 -223.1)"/><path class="cv" d="M327.9,387.6c1.5-5.8,6.7,5.4,3.3,7.7Z" transform="translate(-166.8 -223.1)"/><path class="cw" d="M346.9,380.6c-1.1,1.5-2.6,1-4.1.9-4.3-1.2-8.9.5-13.2-.9C335.4,378.4,341.2,379.6,346.9,380.6Z" transform="translate(-166.8 -223.1)"/><path class="cx" d="M277.1,324.8c-1.1.8-.8,2-1,3.1-.4-1.7-2.7-3.1-.9-5.3C276.4,322.8,277.3,323.4,277.1,324.8Z" transform="translate(-166.8 -223.1)"/><path class="c" d="M288.4,298.8h8.9c3.8-3.4,8.1-6.9,13.5-7.1-1.6-.4-3,.6-4.6.7-4.4-3.4,4.3-7.4,7.2-6.6,6.9,1.1,13.8,2.2,19.6,6.6,2.5,2.7,14.8,5.4,8,9.6-8.4,12.8-16.5,12.8-30.1,10.2-4.5-.6-8.5-1.6-8.9-7.2-.5-1.1-.3-2.8-2.2-2.7-3.5.3-7.1-.8-10.6.7h.1C287.8,302.1,288.1,300.3,288.4,298.8Z" transform="translate(-166.8 -223.1)"/><path class="aj" d="M371.8,247c-.6,1.9-6.7,1.2-8.9,0Z" transform="translate(-166.8 -223.1)"/><path class="cy" d="M370.9,283.8c-.3-2,3.4-3.8,4.4-1.6,3,6.8,8.3,12.7,8.5,20.7-7.1-1.3-5.7-13-12.5-16.3A2.2,2.2,0,0,1,370.9,283.8Z" transform="translate(-166.8 -223.1)"/><path class="cz" d="M390.8,322.6c1.2,2.9-5.8,10.1-5.2,4.2C386.4,324.3,387.8,322.4,390.8,322.6Z" transform="translate(-166.8 -223.1)"/><path class="ci" d="M385.6,326.8c0,1.5.8,2.1,2.2,2A1.5,1.5,0,1,1,385.6,326.8Z" transform="translate(-166.8 -223.1)"/><path class="da" d="M341,302c.5-1.1,2-1.9,1.1-3.5,6.7-7.5,26-17.3,31.2-4a1.9,1.9,0,0,1-1.8.9c-2.7-2-.7,1.2-1.4,1.3-2.5,2.4-5.8,1-8.6,1.7a8.9,8.9,0,0,1-2.8-.3,6.3,6.3,0,0,0-9.4,5.8c-.2,1.5-.1,3-1.5,4C343.2,306.6,346.7,300.2,341,302Z" transform="translate(-166.8 -223.1)"/><path class="db" d="M381.8,303.7c1.6,2.6-1.3,2-2.1,3a23.9,23.9,0,0,1-28.8,6.2c0-5.4,15.4,1.3,20.8-5.6,4.7-5-2.9-9.9,1.1-12S379.5,300.3,381.8,303.7Z" transform="translate(-166.8 -223.1)"/><path class="dc" d="M357.7,344.7c3.2,5.2-3.9,4.3-7,3.2s-6,1.2-7.2-1.4,1.8-4,1-6.7,1.7-2,3.2-2.1C352.7,337.5,355.1,341.3,357.7,344.7Z" transform="translate(-166.8 -223.1)"/><path class="dd" d="M344.2,326.7c1.6,2.9,3.6,4,6.6,2,1.8,2.1-.6,5.2-3.1,5s-9.1,3.2-9.7-.9c1.6-2,4.2-2.9,5.1-5.4A1.9,1.9,0,0,1,344.2,326.7Z" transform="translate(-166.8 -223.1)"/><path class="de" d="M339.9,333.9c4.1-.4,8.5.4,11-4.2,3.6-.8,2.4,1.6,2.2,3.3a24.5,24.5,0,0,1-18.1,1.7C336.4,332.9,338.4,334.8,339.9,333.9Z" transform="translate(-166.8 -223.1)"/><path class="df" d="M326,351.7c-.3-.7-.7-1.3-1-1.9h30.9c-8.8,3.4-18.7-.8-27.9,2C330.2,354.4,324.8,354.7,326,351.7Z" transform="translate(-166.8 -223.1)"/><path class="dg" d="M353.2,311.6c-.9.3-1.9.3-2.3,1.3-5.6-1.1-2.5-5.9-3-10a.9.9,0,0,1,1.3-.1C350.3,305.9,350.7,309.2,353.2,311.6Z" transform="translate(-166.8 -223.1)"/><path class="dh" d="M334,346.7c2.5-1.2,4.9-1.1,7.9.2-3.1,2-5.5,2.2-7.9-.2Z" transform="translate(-166.8 -223.1)"/><path class="di" d="M339.9,333.9c-2.5,1.9-5.7.5-8.4,0,2,.8,7.7-4.6,7.4-1.2C338.2,333.9,339.6,333.5,339.9,333.9Z" transform="translate(-166.8 -223.1)"/><path class="dj" d="M342.1,326.8a7.6,7.6,0,0,1-.3-2.1c-1.2-1.4.2-2.4.4-3.9,3.5,1,.9,4.1,2,5.9h-.4A1.2,1.2,0,0,1,342.1,326.8Z" transform="translate(-166.8 -223.1)"/><path class="dk" d="M353.1,333c-.4-1.4.1-3.2-2.2-3.3,0-.3-.1-.7-.1-1l1-1.8c-.4-1.1.1-1.3,1-1.1C353.7,328.2,354.6,330.5,353.1,333Z" transform="translate(-166.8 -223.1)"/><path class="dl" d="M352.8,325.8l-1,1.1c-1.1-1.5-1.5-3.2-1.9-6C351.6,322.8,352.5,324.2,352.8,325.8Z" transform="translate(-166.8 -223.1)"/><path class="ai" d="M342,317.8c.2-1.7-.7-3.6,1-5C342.8,314.5,343.6,316.4,342,317.8Z" transform="translate(-166.8 -223.1)"/><path class="dm" d="M327,353.6c3.2-1.3,6.4.1,9.8-.3s10.3-1.4,14.1.5c-7.1,6.3-16.6,3.8-24.8,1.7C325.7,354.5,326.2,354,327,353.6Z" transform="translate(-166.8 -223.1)"/><path class="dn" d="M330.1,353.6l-1.8-.2-.3-1.7h13.9C342,355.5,332.7,352.9,330.1,353.6Z" transform="translate(-166.8 -223.1)"/><path class="do" d="M327,353.6l-.9,1.9c-1.8-.6-3.5-1.3-4.6-3.2,1.6-1.1,3.1-.4,4.5-.6Z" transform="translate(-166.8 -223.1)"/><path class="df" d="M342.2,352.5a.9.9,0,0,1-.3-.7C362,350.1,350,356.8,342.2,352.5Z" transform="translate(-166.8 -223.1)"/><path class="av" d="M289.2,303c3.6-2.3,7.6-.9,11.3-1.1,1.7,0,1.6,1.8,1.5,3.1C299.8,300.7,293.3,303.8,289.2,303Z" transform="translate(-166.8 -223.1)"/><path class="dp" d="M344,361.7l2,1.8h-7.8C340.1,360.9,342.2,361.9,344,361.7Z" transform="translate(-166.8 -223.1)"/><path class="dq" d="M342,321.8a26.4,26.4,0,0,0-.2,2.9C339.3,324.7,339.7,321.6,342,321.8Z" transform="translate(-166.8 -223.1)"/><path class="dr" d="M298.2,320.8c5.9-.4.7,6.1,0,.1Z" transform="translate(-166.8 -223.1)"/><path class="ds" d="M342.1,326.8h1.7c.1,3.4-2.6,4.4-4.9,5.9l-1.1-1.1C338.9,329.7,341.7,329.3,342.1,326.8Z" transform="translate(-166.8 -223.1)"/><path class="ai" d="M381.8,303.7c-4.2-1.3-2.9-6.7-9-8.3-.3-5.4-5.1-6-9-6-7.2-.1-13.3,3-18.4,7.9-1.1,1.1-1.9,1.7-3.3,1.2-11-4.6-20.9-14.8-33.9-10-2.2.8-2.1,1.1-1.2,3.2,1-.4,1.2.1,1,1-5,2.2-8.6,8.2-14.8,5.1-.6-2.1.9-3.5,2.1-4.7,5-4.7,7.7-13.1,16-11.8,2.2.2,4.5.6,6.7-.4,5.4-2.8,11.6.3,16.9-2.1,7.8-1.3,12-15.3,19.5-6.9,2.4,4.1,6.4,1.2,9.7,1.8,6.2,9.9,14.6,18,18.6,29.1Z" transform="translate(-166.8 -223.1)"/><path class="dt" d="M364.1,273.7c-2.4,1.8-6.9,3-8.5-.5,3.2-1.2,3.8-3.2,3.4-6.3C362.2,268.1,362.7,271.3,364.1,273.7Z" transform="translate(-166.8 -223.1)"/><path class="du" d="M355.9,272.9a4.1,4.1,0,0,1-.1,1.1c-12.4-10.5-8.6,4.7-20.9,4.8a43.3,43.3,0,0,0,14.8-16.7C351.6,265.7,355.3,268.8,355.9,272.9Z" transform="translate(-166.8 -223.1)"/><path class="dv" d="M318,280.9a2.5,2.5,0,0,1-2.6,1c-11.8-2.5-16,8.6-22.2,15.9-4,.1-2-2.5-1.1-3.3a49.8,49.8,0,0,0,10.5-12.4C306.6,279.1,313.1,281.6,318,280.9Z" transform="translate(-166.8 -223.1)"/><path class="dw" d="M330.2,380.7c4.2.2,8.6-1.6,12.6.8C338.6,381.3,334.3,383.2,330.2,380.7Z" transform="translate(-166.8 -223.1)"/><path class="dx" d="M308,308.8c-3.3-1.8-2.5-5.1-2.9-8,1.7,2,2.4-.4,3.5-.8,7.7-1.5,19-1,20.4,8.7-1.8,1.9-4,.9-6,1-.9-2.3-2.7-1.1-4.2-1a45.6,45.6,0,0,1-6.4,0C310.9,308.2,309.4,306.1,308,308.8Z" transform="translate(-166.8 -223.1)"/><path class="dy" d="M319.8,300.9l-7.7-.2c-1.2-2.4,3.5-1.3,3.5-3s-4.8.2-5.6-2.1c7.9-1.4,15.7-2.2,23,2.4,2.2,4.9-1.2,6.2-4.7,3.2C325.7,299.9,322.7,302.4,319.8,300.9Z" transform="translate(-166.8 -223.1)"/><path class="dz" d="M328.1,299.8l4.2,2.4c1.1-1.4.4-2.9.7-4.2,3,5.2-.1,8.1-4,10.7-.9-.5-3,.7-2.7-.8,1.4-5.9-3.5-5.5-6.5-7,2.2-.3,4.7.4,6.2-2C326.9,298.7,326.4,301.9,328.1,299.8Z" transform="translate(-166.8 -223.1)"/><path class="ea" d="M312.1,307.8c2.9-.3,5.9.3,8.8-.8s4.6.2,2.1,2.7c-3.4.2-6.6-.5-9.9-.4C312.3,309.1,311.8,308.8,312.1,307.8Z" transform="translate(-166.8 -223.1)"/><path class="eb" d="M308.2,301.3c-1.6,3.9-2.2.5-3.1-.5-1.1-4.2,2.5-4.1,4.9-5.2C311.8,298.2,309,299.4,308.2,301.3Z" transform="translate(-166.8 -223.1)"/><path class="ec" d="M312.1,307.8c3.7,3.2-2.5,1.8-4.1,1s-1.2-2.5,1.1-3.4S310.7,307.5,312.1,307.8Z" transform="translate(-166.8 -223.1)"/><path class="ed" d="M309.1,290.8c1.5-.5,3.7-3.2,4,1.1C311.6,292.2,309.8,293.5,309.1,290.8Z" transform="translate(-166.8 -223.1)"/><path class="ee" d="M309.1,290.8c1,1.6,2.7.7,4,1.1-1.6,1.1-3.3.9-5.1.8l-1-1A2,2,0,0,1,309.1,290.8Z" transform="translate(-166.8 -223.1)"/><path class="ef" d="M313.1,309.7v-.9c1.7.2,3.5-.6,4.9.9Z" transform="translate(-166.8 -223.1)"/><path class="eg" d="M372.9,295.1v.3c-3.3,2.4,6.3,5.9,0,12.4a2,2,0,0,1-2-.7c-3.3-5-9.7-1.1-13.1-4.5,1.5-3.2,5.9-1.8,9-2.7-2.1-1.3-4.7-.2-6-2.2,2.2-2.7,7.8,1.5,9.5-1.7C370.1,294.6,372,295.3,372.9,295.1Z" transform="translate(-166.8 -223.1)"/><path class="eh" d="M360.7,297.7l1.2.2c0,1.3,1.4,2.3.9,3.8-5.9-.7-5,3.3-8.7,1.1s-3.8,1.6-6.2.1c.4-3,1.4-5.5,4.7-6.2s4.2,1.4,6.3.2Z" transform="translate(-166.8 -223.1)"/><path class="ei" d="M370.9,295.2c.1.5-.2.7-.7.8-.7-1.6-2.9-.6-3.7-2.3C368.8,292.1,370,292.9,370.9,295.2Z" transform="translate(-166.8 -223.1)"/><path class="ej" d="M358.9,296.9c-2.2,2.1-4.2-.7-6.3-.2C354.7,295.2,356.8,296.5,358.9,296.9Z" transform="translate(-166.8 -223.1)"/><path class="ek" d="M371.7,306.5l1.1,1.3c-.5,3.6-3.7,2.8-5.8,3.4s-7.3,1.8-11.1.5a2.3,2.3,0,0,1-.4-2.7c2.7-1.4,5.6,0,8.3-.8C366.7,308.9,368.9,306.3,371.7,306.5Z" transform="translate(-166.8 -223.1)"/><path class="ej" d="M356,308.8c0,1-.1,2-.1,2.9-7.5.7-6.7-3.8-7.5-8.7,3.6-1.2,2.3,1.7,3.5,3.5S355.9,305.9,356,308.8Z" transform="translate(-166.8 -223.1)"/><path class="el" d="M342.2,352.5c2.3.3,4.8-.6,6.8,1.3-4.2,1.7-8.7.7-13,.8-1.6-1-3.5.2-5-.9a1.3,1.3,0,0,1-.9-.1C334,351.8,338.2,353.4,342.2,352.5Z" transform="translate(-166.8 -223.1)"/><path class="dn" d="M331,353.7c1.7-.3,3.5-.4,5,.9C334.2,354.8,332.5,354.8,331,353.7Z" transform="translate(-166.8 -223.1)"/><path class="em" d="M351.4,287.9c1.5.9,1,1.7.1,2.4S350.4,288.8,351.4,287.9Z" transform="translate(-166.8 -223.1)"/><path class="en" d="M308.2,301.3c-.5-2.2,1.9-3.3,1.9-5.3h3c.5,1.8-1.5,3-1,4.8Z" transform="translate(-166.8 -223.1)"/><path class="eo" d="M312.1,299.9c-3.1-2.2,1.3-2.5,1-4,1.9,0,5.1-.7,4.8,2.2S314,299.5,312.1,299.9Z" transform="translate(-166.8 -223.1)"/><path class="ep" d="M328.1,299.8c.3,4.2-2.7,2-2.1-.9A1.8,1.8,0,0,1,328.1,299.8Z" transform="translate(-166.8 -223.1)"/><path class="eq" d="M356,308.8c-1-2.9-4.9,2.6-5-2s4.7-3.1,8-3.9,11.1-1.8,12.7,3.6c-.7.9-1.4,1.8-2.7,1.1s-2.5,1.7-4.2,1.4S358.9,311,356,308.8Z" transform="translate(-166.8 -223.1)"/><path class="er" d="M362.8,301.7c-.5-1.2-2.2-2.2-.9-3.8,2.3.1,4.9-.7,6.4,2.5Z" transform="translate(-166.8 -223.1)"/><path class="es" d="M359,302.9c-1.5,1.1-3.4.3-5.1.9s-1.4-.4-1.2-1.3,3.4,1.1,5.1,0Z" transform="translate(-166.8 -223.1)"/><path class="et" d="M354,301.8c-1.2.6-1.3,1.2-.1,2-.8,1.2-.7,3.2-2.9,3s.5-2.9-.8-4.1C351.2,301.5,351.9,298.6,354,301.8Z" transform="translate(-166.8 -223.1)"/><path class="eu" d="M364.8,309c1.4-.5,1.5-5,4.2-1.4C367.9,308.8,366.8,310.4,364.8,309Z" transform="translate(-166.8 -223.1)"/><path class="ev" d="M230.3,497.2h-.4v.2C230.1,497.9,230.9,496.9,230.3,497.2Z" transform="translate(-166.8 -223.1)"/><path class="ew" d="M229.9,497.1l-.3-2.2C229.5,495.7,229.3,496.8,229.9,497.1Z" transform="translate(-166.8 -223.1)"/><path class="ev" d="M423.3,554a9.7,9.7,0,0,1,2.4-.2c-5.2-2.1-6.5-13.1-6.1-23.7C417.3,540.6,410.4,558.7,423.3,554Z" transform="translate(-166.8 -223.1)"/><path class="ev" d="M242.3,561.5h.5a9.3,9.3,0,0,1-1.6-1.8.9.9,0,0,1,.1.5A6.4,6.4,0,0,0,242.3,561.5Z" transform="translate(-166.8 -223.1)"/><path class="ev" d="M219.7,431.3c1.6,2.2,3.4,4.4,1.6,7.1-6,12-5.7,25.1-6.5,38-.2,2.7,1.2,6.4-1.7,7.7s-7.2-7.8-11.9-5.3c-2.1,1.3-1.2,3.9-1,6,.6,13,18.5,6.9,21.6,18.9,2.7,5.1-.6,28.4-6.8,29.9-7.2,3.7-12.2,5.8-16.7,6.5l7,1.3c7.1,1.3,28.8,9.3,22.8-5.4-5.1-9.5,1.8-19.6-3.1-28.6-1.8-5.2-11.9-72.2,1.8-60.5-1.6,11.9-.2,23.7,1.5,35.6.6,4.2.9,8.3,1.3,12.4a1.1,1.1,0,0,0,.1-.5,274.7,274.7,0,0,0,0-28.7c-.5-2.5-1.3-5.5.9-7.5,1.4.8,2.2,2.6,2.7,4.7C231.8,448.3,228.1,436.5,219.7,431.3Z" transform="translate(-166.8 -223.1)"/><path class="ev" d="M406.1,557.1a24.1,24.1,0,0,1,.8-2.5l-1.2,2.5h.4Z" transform="translate(-166.8 -223.1)"/><path class="ev" d="M458,553.6a2.4,2.4,0,0,1,.9-.6l-.6-1.9A5.1,5.1,0,0,1,458,553.6Z" transform="translate(-166.8 -223.1)"/><path class="ev" d="M427,491.8a101.4,101.4,0,0,1,4.8-13,27.1,27.1,0,0,0-.1-23.1c-1,3.8-2,7.6-2.9,11.4C430.7,469.9,429.2,480.4,427,491.8Z" transform="translate(-166.8 -223.1)"/><path class="ev" d="M229.9,497.1l-.3-2.2C229.5,495.7,229.3,496.8,229.9,497.1Z" transform="translate(-166.8 -223.1)"/><path class="ev" d="M230.3,497.2h-.4v.2C230.1,497.9,230.9,496.9,230.3,497.2Z" transform="translate(-166.8 -223.1)"/><path class="ev" d="M234.2,497.2V497c-.1,2.5-.1,4.9-.2,7.3a19.3,19.3,0,0,0,.1-2.4C234.2,500.4,234.2,498.8,234.2,497.2Z" transform="translate(-166.8 -223.1)"/><path class="b" d="M463.1,537.5c-11,5-21.6,10.9-32.5,16a6.5,6.5,0,0,1-4.9.3,9.7,9.7,0,0,0-2.4.2c-12.9,4.7-6-13.4-3.7-23.9.3-8.8,1.8-17.5,3-20.5a177.9,177.9,0,0,1,4.4-17.8c2.2-11.4,3.7-21.9,1.8-24.7-6.8,28.8-9.6,60.5-21.9,87.5a24.1,24.1,0,0,0-.8,2.5h.6c.5,1.4-.1,3.2.8,4.4h14.4l33.5-15.6a7.4,7.4,0,0,1,2.9,5.2l.6,1.9c.4-.1.9.2,1.4,1.2a46.4,46.4,0,0,1,2,7.3h4.8a118.1,118.1,0,0,0-3.6-14.5c-.9-3.1-.8-4.8,2.4-6.1,1.6-.7,3.7-2,3.1-4.1s-3.1-.1-4.7-.8c0,.1,0,.1-.1.1A1.9,1.9,0,0,1,463.1,537.5Z" transform="translate(-166.8 -223.1)"/><path class="o" d="M234.2,496.8v0Z" transform="translate(-166.8 -223.1)"/><path class="o" d="M234.1,525c-.2-7.3-.1-15.2,0-23.1a19.3,19.3,0,0,1-.1,2.4C233.9,511.2,233.8,518.1,234.1,525Z" transform="translate(-166.8 -223.1)"/><path class="o" d="M237.9,561.5h2.7a8.3,8.3,0,0,1,.7-1.3.9.9,0,0,0-.1-.5,27.1,27.1,0,0,1-4.3-9.7C237.3,553.8,237.6,557.7,237.9,561.5Z" transform="translate(-166.8 -223.1)"/><path class="ex" d="M425.9,561.5h5.2a5,5,0,0,1,1.5-1.3c7.7-4.6,15.9-7,24.9-6h0l.5-.6a5.1,5.1,0,0,0,.3-2.5C455.6,542.6,452.9,549.3,425.9,561.5Z" transform="translate(-166.8 -223.1)"/><path class="ex" d="M458.3,551.1a7.4,7.4,0,0,0-2.9-5.2l-33.5,15.6h4C452.9,549.3,455.6,542.6,458.3,551.1Z" transform="translate(-166.8 -223.1)"/><path class="ey" d="M406,557.3v-.2h-.4l.3.3Z" transform="translate(-166.8 -223.1)"/><path class="ey" d="M405.9,560.5a1.7,1.7,0,0,1-.3,1h.9Z" transform="translate(-166.8 -223.1)"/><path class="ey" d="M406,557.5v.2a5.3,5.3,0,0,1-.2,2.8l.6,1h1c-.9-1.2-.3-3-.8-4.4h-.6v.4Z" transform="translate(-166.8 -223.1)"/><path class="ez" d="M458,553.6a4.3,4.3,0,0,1-.4.7,26.2,26.2,0,0,1,1.8,7.2H461c-.9-3.5-1.6-6.3-2.1-8.5A2.4,2.4,0,0,0,458,553.6Z" transform="translate(-166.8 -223.1)"/><path class="ez" d="M462.3,561.5a46.4,46.4,0,0,0-2-7.3c-.5-1-1-1.3-1.4-1.2.5,2.2,1.2,5,2.1,8.5Z" transform="translate(-166.8 -223.1)"/><path class="ez" d="M458,553.6l-.5.6h.1A4.3,4.3,0,0,0,458,553.6Z" transform="translate(-166.8 -223.1)"/><path class="ah" d="M458.2,561.5c-.5-2.3-1.5-4.5-.8-6.9l-.3.2c-8.1.7-16.2,1.5-23.2,6.3l-.7.4h25Z" transform="translate(-166.8 -223.1)"/><path class="ah" d="M433.9,561.1c7-4.8,15.1-5.6,23.2-6.3l.3-.2c0-.2.1-.3.1-.4-9-1-17.2,1.4-24.9,6a3.1,3.1,0,0,0,.6,1.3Z" transform="translate(-166.8 -223.1)"/><path class="ah" d="M458.2,561.5h1.2a26.2,26.2,0,0,0-1.8-7.2l-.2.3C456.7,557,457.7,559.2,458.2,561.5Z" transform="translate(-166.8 -223.1)"/><path class="ah" d="M457.6,554.3h-.1c0,.1-.1.2-.1.4Z" transform="translate(-166.8 -223.1)"/><path class="fa" d="M432.6,560.2a5,5,0,0,0-1.5,1.3h1.4A6.2,6.2,0,0,1,432.6,560.2Z" transform="translate(-166.8 -223.1)"/><path class="fa" d="M433.2,561.5h0Z" transform="translate(-166.8 -223.1)"/><path class="fa" d="M432.5,561.5h.7a3.1,3.1,0,0,1-.6-1.3A6.2,6.2,0,0,0,432.5,561.5Z" transform="translate(-166.8 -223.1)"/><path class="ew" d="M188.2,550.3a23.8,23.8,0,0,1,.5-2.6c.4-1.3.9-2.4,2.1-2.5a4.4,4.4,0,0,1,.8-1.1l28.8,7.2h.8c3,.1,7.1-.9,6.3,3.5a40.3,40.3,0,0,0-.9,6.7h9.6a5.3,5.3,0,0,1,.1-1.3c-1-17.3-3.8-34.5-2.6-52l.3-3.9c.1-2.4.1-4.8.2-7.3,0-8-.7-16.2-.2-24.1-.2-3.4-.4-6.7-.7-10s-1.3-3.9-2.7-4.7c-2.2,2-1.4,5-.9,7.5a274.7,274.7,0,0,1,0,28.7,1.1,1.1,0,0,1-.1.5l.3,2.2h.4c.6-.3-.2.7-.4.1v-.2c-.6-.3-.4-1.4-.3-2.2-.4-4.1-.7-8.2-1.3-12.4-1.7-11.9-3.1-23.7-1.5-35.6-13.7-11.7-3.6,55.3-1.8,60.5,4.9,9-2,19.1,3.1,28.6,6,14.7-15.7,6.7-22.8,5.4l-7-1.3c-7.2,1.1-13.2-1.3-24.6-6.7-7.4-2.5,12-37.7,14.3-43.8a38.6,38.6,0,0,0,4.4-13.7c1.2-8.6,6.8-15,11.3-21.9l1.3-3.4h-1.5c-7.2,8.6-13.4,17.4-15.6,29.1.3,11.3-36.4,59-13.6,58.9,14.8.4,7.1,14.1,6.5,23h4.3C186,556.7,187,552.4,188.2,550.3Z" transform="translate(-166.8 -223.1)"/><path class="ew" d="M234,472.9c-.5,7.9.2,16.1.2,24.1v-.2C234.3,488.7,234.3,480.6,234,472.9Z" transform="translate(-166.8 -223.1)"/><path class="ew" d="M237.9,561.5c-.3-3.8-.6-7.7-1-11.5-1.9-6.9-2.6-15.5-2.8-25-.3-6.9-.2-13.8-.1-20.7l-.3,3.9c-1.2,17.5,1.6,34.7,2.6,52l.9,1.3Z" transform="translate(-166.8 -223.1)"/><path class="ew" d="M220.4,551.3h0Z" transform="translate(-166.8 -223.1)"/><path class="ew" d="M225.4,561.5Z" transform="translate(-166.8 -223.1)"/><path class="ew" d="M220.6,552.5c4.6.3,5.8.8,5.5,4.1.3-2.8-.3-4.7-5.7-5.3l-28.8-7.2a4.4,4.4,0,0,0-.8,1.1,3.4,3.4,0,0,1,1.3.2A275.9,275.9,0,0,0,220.6,552.5Z" transform="translate(-166.8 -223.1)"/><path class="ew" d="M225.9,561.5h.7a40.3,40.3,0,0,1,.9-6.7c.8-4.4-3.3-3.4-6.3-3.5C228.5,551.9,227,554.7,225.9,561.5Z" transform="translate(-166.8 -223.1)"/><path class="ew" d="M226.1,556.6a8.8,8.8,0,0,1-.3,2c-.1.9-.2,1.9-.4,2.9h.5c1.1-6.8,2.6-9.6-4.7-10.2h-.8C225.8,551.9,226.4,553.8,226.1,556.6Z" transform="translate(-166.8 -223.1)"/><path class="fb" d="M236.3,560.2a5.3,5.3,0,0,0-.1,1.3h.7A13.9,13.9,0,0,0,236.3,560.2Z" transform="translate(-166.8 -223.1)"/><path class="fb" d="M237.2,561.5l-.9-1.3a13.9,13.9,0,0,1,.6,1.3Z" transform="translate(-166.8 -223.1)"/><path class="fc" d="M189.1,561.5c.5-3.4.9-6.8,1.4-10.3a4.5,4.5,0,0,1-.7-2.4c-.6,0-1.1.5-1.6,1.5-.7,3.6-1.2,7.4-1.7,11.2Z" transform="translate(-166.8 -223.1)"/><path class="fc" d="M190.5,551.2v-2l-.7-.4a4.5,4.5,0,0,0,.7,2.4Z" transform="translate(-166.8 -223.1)"/><path class="fc" d="M188.2,550.3c-1.2,2.1-2.2,6.4-3.1,11.2h1.4C187,557.7,187.5,553.9,188.2,550.3Z" transform="translate(-166.8 -223.1)"/><path class="fd" d="M189.8,548.8a6.8,6.8,0,0,1,1-3.6c-1.2.1-1.7,1.2-2.1,2.5a23.8,23.8,0,0,0-.5,2.6C188.7,549.3,189.2,548.8,189.8,548.8Z" transform="translate(-166.8 -223.1)"/><path class="fd" d="M194.5,552.4a3.6,3.6,0,0,1-3.8-1c1.6,2.2.5,4.7.3,7s-.3,2.1-.5,3.1h17.7C205.3,556.4,201.2,552.1,194.5,552.4Z" transform="translate(-166.8 -223.1)"/><path class="fd" d="M189.8,548.8l.7.4v2c.1.1.1.2.2.2a3.6,3.6,0,0,0,3.8,1c6.7-.3,10.8,4,13.7,9.1h17.2c.2-1.9.6-3.5.7-4.9.3-3.3-.9-3.8-5.5-4.1a275.9,275.9,0,0,1-28.5-7.1,3.4,3.4,0,0,0-1.3-.2A6.8,6.8,0,0,0,189.8,548.8Z" transform="translate(-166.8 -223.1)"/><path class="fd" d="M226.1,556.6c-.1,1.4-.5,3-.7,4.9.2-1,.3-2,.4-2.9A8.8,8.8,0,0,0,226.1,556.6Z" transform="translate(-166.8 -223.1)"/><path class="fd" d="M190.7,551.4c-.1,0-.1-.1-.2-.2-.5,3.5-.9,6.9-1.4,10.3h1.4c.2-1,.3-2.1.5-3.1S192.3,553.6,190.7,551.4Z" transform="translate(-166.8 -223.1)"/><path class="fd" d="M190.5,551.2h0c.1.1.1.2.2.2S190.6,551.3,190.5,551.2Z" transform="translate(-166.8 -223.1)"/><path class="fe" d="M241.3,561.5h1a6.4,6.4,0,0,1-1-1.3Z" transform="translate(-166.8 -223.1)"/><path class="fe" d="M234.2,497.2c0,1.6,0,3.2-.1,4.7C234.2,500.4,234.2,498.8,234.2,497.2Z" transform="translate(-166.8 -223.1)"/><path class="fe" d="M419.6,530.1a16.3,16.3,0,0,0,.6-5.4c.3-4,4.1-19.1,6.8-32.9a177.9,177.9,0,0,0-4.4,17.8C421.4,512.6,419.9,521.3,419.6,530.1Z" transform="translate(-166.8 -223.1)"/><path class="fe" d="M427.7,466.4c-5.5,29.6-11.8,59.3-20.8,88.2,12.3-27,15.1-58.7,21.9-87.5A1.6,1.6,0,0,0,427.7,466.4Z" transform="translate(-166.8 -223.1)"/><path class="fe" d="M425.7,553.8a6.5,6.5,0,0,0,4.9-.3c10.9-5.1,21.5-11,32.5-16a1.9,1.9,0,0,0,1.1-1.4c-12.4,5.1-24.4,11.5-36.6,17.2A3.2,3.2,0,0,1,425.7,553.8Z" transform="translate(-166.8 -223.1)"/><path class="fe" d="M240.6,561.5h.7v-1.3A8.3,8.3,0,0,0,240.6,561.5Z" transform="translate(-166.8 -223.1)"/><path class="fe" d="M234.2,496.8v.4c0,1.6,0,3.2-.1,4.7-.1,7.9-.2,15.8,0,23.1a133.7,133.7,0,0,0,2.3,20.9c.2,1.4.3,2.7.5,4.1a27.1,27.1,0,0,0,4.3,9.7c-9-29.6-3.9-61.4-6.7-91.5-.2,1-.3,2-.4,3s.2,2.9.3,3.9C234.6,482.3,234.4,489.6,234.2,496.8Z" transform="translate(-166.8 -223.1)"/><path class="fe" d="M405.9,560.5a4.5,4.5,0,0,1,.1-3l-.3-.3a8.9,8.9,0,0,1-1.3,4.3h1.2A1.7,1.7,0,0,0,405.9,560.5Z" transform="translate(-166.8 -223.1)"/><path class="fe" d="M406.1,557.7v-.2a4.5,4.5,0,0,0-.1,3A5.3,5.3,0,0,0,406.1,557.7Z" transform="translate(-166.8 -223.1)"/><path class="fe" d="M192.4,475.9a38.6,38.6,0,0,1-4.4,13.7c-2.3,6.1-21.7,41.3-14.3,43.8,11.4,5.4,17.4,7.8,24.6,6.7a124.1,124.1,0,0,1-22.9-7.2c-3.1-1.1-3.1-2.6-2.1-5.2a365.4,365.4,0,0,1,14.6-34.8c2-4.4,5.1-8.4,5.3-13.3.1-9.9,6.6-17,11.4-24.9,1.4-3.2,1.7-3.9.4-4.1l-1.3,3.4C199.2,460.9,193.6,467.3,192.4,475.9Z" transform="translate(-166.8 -223.1)"/><path class="fe" d="M233.3,462.9c.3,3.3.5,6.6.7,10,0-.5.1-1.1.1-1.7A46.7,46.7,0,0,0,233.3,462.9Z" transform="translate(-166.8 -223.1)"/><path class="fe" d="M234.2,496.8c.2-7.2.4-14.5.2-21.7-.1-1-.2-2.4-.3-3.9,0,.6-.1,1.2-.1,1.7C234.3,480.6,234.3,488.7,234.2,496.8Z" transform="translate(-166.8 -223.1)"/><path class="fe" d="M234.1,525c.2,9.5.9,18.1,2.8,25-.2-1.4-.3-2.7-.5-4.1A133.7,133.7,0,0,1,234.1,525Z" transform="translate(-166.8 -223.1)"/><path d="M283,481.5h8.9V490h20.8v7.6c-.1,4-.4,9.2-.9,15.5a65.7,65.7,0,0,1-1.1,9.1,7.7,7.7,0,0,1-3.1,4.7c-1.6,1-4.3,1.5-8,1.5l-8.7-.3-1.6-8.9c3,.3,5.5.4,7.5.4s4-.4,4.8-1.2,1.1-2.3,1.5-5,.6-7,.8-13.2v-1.9H291.3a50.8,50.8,0,0,1-1.9,11.2,32.3,32.3,0,0,1-7.6,12.8,51.3,51.3,0,0,1-9.1,7.3l-5.8-7.2a45.4,45.4,0,0,0,8.6-6.5,25.4,25.4,0,0,0,5.7-9.9,39.2,39.2,0,0,0,1.3-7.7H268.9V490H283Z" transform="translate(-166.8 -223.1)"/><path d="M320.7,488.5l8.3-3a162.6,162.6,0,0,1,6.5,17.9l-8.3,3.2A174.4,174.4,0,0,0,320.7,488.5Zm38.8-5,9,1.4a114.8,114.8,0,0,1-2.6,15.2c-2.6,9.2-7.1,16.2-13.7,21a46.1,46.1,0,0,1-9.4,5.1,88.4,88.4,0,0,1-10,3.1l-4.3-8a70.2,70.2,0,0,0,12.7-4.4c6.8-3.3,11.6-8.1,14.2-14.3C357.3,498.2,358.6,491.9,359.5,483.5Zm-22.8,1.6,8.5-2.6,3,8.9c.6,2.1,1.4,4.9,2.3,8.4l-8.5,2.9C340.6,496.9,338.8,491.1,336.7,485.1Z" transform="translate(-166.8 -223.1)"/><path d="M387.6,480.9l-.7,31.9h-9.3l-.7-31.9Zm-.2,46.4H377v-9.9h10.4Z" transform="translate(-166.8 -223.1)"/></svg>